<svg version="1.1" viewBox="0 0 611.48 453.16" xmlns="http://www.w3.org/2000/svg">
  <path
    d="m7.14 31.258c5.2326-11.586 8.5841-13.112 21.662-15.397 66.372-9.5956 163.67-14.441 279.87-15.369 80.857-0.65157 148.7-2.3153 269.43 8.66 14.566 2.8345 22.307 7.1118 24.109 18.665 10.966 56.268 13.133 320.01 1.4298 396.22-4.5436 9.7097-13.712 15.961-25.167 17.936-100.01 9.5228-191.67 10.934-281.88 11.185-101.06 0.07295-253.47-2.246-264.41-8.1167-11.783-3.0847-18.179-9.0941-21.385-18.81-12.391-106.36-14.799-336.46-3.6596-394.97z" />
</svg>