<svg width="611.48199" height="453.16052" viewBox="0 0 611.48199 453.16052" version="1.1"
  xmlns="http://www.w3.org/2000/svg">
  <path
    d="M 7.14,31.258 C 12.372,19.672 15.724,18.145 28.802,15.861 95.173,6.265 192.467,1.419 308.673,0.491 c 80.857,-0.652 148.702,-2.315 269.43,8.66 14.566,2.834 22.307,7.112 24.109,18.665 10.966,56.268 13.133,320.008 1.43,396.222 -4.544,9.71 -13.712,15.961 -25.167,17.936 -100.013,9.523 -191.667,10.934 -281.882,11.185 -101.063,0.073 -253.469,-2.246 -264.41,-8.117 -11.783,-3.085 -18.179,-9.094 -21.385,-18.81 -12.391,-106.357 -14.799,-336.465 -3.66,-394.974 z" />
</svg>